# xmcd
#
# Track frame offsets:
#	150
#	12236
#	25179
#	40912
#	53204
#	65228
#	77560
#	94685
#	107225
#	121898
#
# Disc length: 1904 seconds
#
# Revision: 0
# Processed by: cddbd v1.5.2PL0 Copyright (c) Steve Scherf et al.
# Submitted via: audiograbber 1.83.01
#
DISCID=7d076e0a
DTITLE=Various Artist - All Country, All Heart Disc 2
DYEAR=2019
DGENRE=Country
TTITLE0=Alabama - Loving You Is Killing Me
TTITLE1=Crystal Gayle - Don't It Make My Brown Eyes Blue (Live)
TTITLE2=Exile - Kiss You All Over
TTITLE3=Lorrie Morgan - What Part Of No
TTITLE4=Pam Tillis - When You Walk In The Room (Live)
TTITLE5=Moe Bandy - Two Lonley People
TTITLE6=Johnny Lee - Looking For Love
TTITLE7=Janie Fricke - Your Heart's Not In It
TTITLE8=Jeanne Purret - Satin Sheets
TTITLE9=Tanya Tucker - My Arms Stay Open All Night
EXTD=
EXTT0=
EXTT1=
EXTT2=
EXTT3=
EXTT4=
EXTT5=
EXTT6=
EXTT7=
EXTT8=
EXTT9=
PLAYORDER=
